# xmcd
#
# Track frame offsets: 
#        150
#        14507
#        29414
#        45109
#        60609
#        76224
#        89368
#        103874
#        120054
#        133270
#        147509
#        162106
#        177135
#        193133
#        208740
#        224161
#        237518
#        251623
#
# Disc length: 3549 seconds
#
# Revision: 0
# Processed by: cddbd v1.4PL0 Copyright (c) Steve Scherf et al.
# Submitted via: ExactAudioCopy v0.95a4
#
DISCID=020ddb12
DTITLE=Lonnie Johnson - Mr Johnson Blues
DYEAR=2000
DGENRE=Blues
TTITLE0=Mr Johnson Blues
TTITLE1=Roamin Rambler Blues
TTITLE2=Guitar Blues
TTITLE3=Winnie The Waiter
TTITLE4=No More Trouble Now
TTITLE5=There Ain't No Justice
TTITLE6=Have To Change Keys To Play These
TTITLE7=A Broken Heart That Never Smiles
TTITLE8=Tin Can Alley Blues
TTITLE9=Away Down The Alley Blues
TTITLE10=Stomping 'Em Along Slow
TTITLE11=Uncle Ned Don't Lose Your Head
TTITLE12=Bull Frog Man
TTITLE13=Lowland Moan
TTITLE14=Racketeer's Blues
TTITLE15=South Bound Water
TTITLE16=Blues In 'G'
TTITLE17=Sweet Potato Blues
EXTD=
EXTT0=
EXTT1=
EXTT2=
EXTT3=
EXTT4=
EXTT5=
EXTT6=
EXTT7=
EXTT8=
EXTT9=
EXTT10=
EXTT11=
EXTT12=
EXTT13=
EXTT14=
EXTT15=
EXTT16=
EXTT17=
PLAYORDER=
